<svg xmlns="http://www.w3.org/2000/svg" xmlns:xlink="http://www.w3.org/1999/xlink" style="margin:auto;display:block;z-index:1;position:relative" width="1440" height="705" preserveAspectRatio="xMidYMid" viewBox="0 0 1440 705">
<g transform="translate(720,352.5) scale(1,1) translate(-720,-352.5)"><linearGradient id="lg-0.60486255398203" x1="0" x2="1" y1="0" y2="0">
  <stop stop-color="#ff3333" offset="0"></stop>
  <stop stop-color="#00ffff" offset="1"></stop>
</linearGradient><path d="M 1256 353 C 1256 520 1024 748 865 799 C 706 850 409 785 311 650 C 213 515 194 177 292 42 C 390 -93 688 -91 847 -40 C 1006 11 1256 186 1256 353" fill="url(#lg-0.60486255398203)" opacity="0.49">
  <animate attributeName="d" dur="4.166666666666666s" repeatCount="indefinite" keyTimes="0;0.3333333333333333;0.6666666666666666;1" calcmod="spline" keySplines="0.3 0.1 0.7 0.9;0.3 0.1 0.7 0.9;0.3 0.1 0.7 0.9" begin="-1.3888888888888886s" values="M 1256 353 C 1256 520 1024 748 865 799 C 706 850 409 785 311 650 C 213 515 194 177 292 42 C 390 -93 688 -91 847 -40 C 1006 11 1256 186 1256 353;M 1226 353 C 1226 507 1005 732 858 779 C 711 826 394 781 303 656 C 212 531 238 193 329 68 C 420 -57 716 -136 863 -89 C 1010 -42 1226 199 1226 353;M 1192 353 C 1192 500 992 714 852 759 C 712 804 413 757 327 638 C 241 519 265 203 351 84 C 437 -35 684 -13 824 32 C 964 77 1192 206 1192 353;M 1256 353 C 1256 520 1024 748 865 799 C 706 850 409 785 311 650 C 213 515 194 177 292 42 C 390 -93 688 -91 847 -40 C 1006 11 1256 186 1256 353"></animate>
</path><path d="M 1219 353 C 1219 510 979 641 830 690 C 681 739 385 790 293 663 C 201 536 217 181 309 54 C 401 -73 702 -99 851 -50 C 1000 -1 1219 196 1219 353" fill="url(#lg-0.60486255398203)" opacity="0.49">
  <animate attributeName="d" dur="4.166666666666666s" repeatCount="indefinite" keyTimes="0;0.3333333333333333;0.6666666666666666;1" calcmod="spline" keySplines="0.3 0.1 0.7 0.9;0.3 0.1 0.7 0.9;0.3 0.1 0.7 0.9" begin="-1.3888888888888886s" values="M 1219 353 C 1219 510 979 641 830 690 C 681 739 385 790 293 663 C 201 536 217 181 309 54 C 401 -73 702 -99 851 -50 C 1000 -1 1219 196 1219 353;M 1226 353 C 1226 506 981 657 835 705 C 689 753 387 784 297 660 C 207 536 247 198 337 74 C 427 -50 699 -80 845 -33 C 991 14 1226 200 1226 353;M 1271 353 C 1271 515 1027 772 873 822 C 719 872 391 791 296 660 C 201 529 253 213 348 82 C 443 -49 681 -51 835 -1 C 989 49 1271 191 1271 353;M 1219 353 C 1219 510 979 641 830 690 C 681 739 385 790 293 663 C 201 536 217 181 309 54 C 401 -73 702 -99 851 -50 C 1000 -1 1219 196 1219 353"></animate>
</path><path d="M 1283 353 C 1283 518 1028 766 871 817 C 714 868 362 817 265 683 C 168 549 209 185 306 51 C 403 -83 697 -110 854 -59 C 1011 -8 1283 188 1283 353" fill="url(#lg-0.60486255398203)" opacity="0.49">
  <animate attributeName="d" dur="4.166666666666666s" repeatCount="indefinite" keyTimes="0;0.3333333333333333;0.6666666666666666;1" calcmod="spline" keySplines="0.3 0.1 0.7 0.9;0.3 0.1 0.7 0.9;0.3 0.1 0.7 0.9" begin="-1.3888888888888886s" values="M 1283 353 C 1283 518 1028 766 871 817 C 714 868 362 817 265 683 C 168 549 209 185 306 51 C 403 -83 697 -110 854 -59 C 1011 -8 1283 188 1283 353;M 1282 353 C 1282 503 982 676 840 722 C 698 768 358 801 270 680 C 182 559 227 179 315 58 C 403 -63 699 -70 842 -24 C 985 22 1282 203 1282 353;M 1240 353 C 1240 513 998 692 846 741 C 694 790 380 797 286 668 C 192 539 225 190 319 61 C 413 -68 718 -158 870 -108 C 1022 -58 1240 193 1240 353;M 1283 353 C 1283 518 1028 766 871 817 C 714 868 362 817 265 683 C 168 549 209 185 306 51 C 403 -83 697 -110 854 -59 C 1011 -8 1283 188 1283 353"></animate>
</path><path d="M 1280 353 C 1280 524 1015 705 852 758 C 689 811 314 858 214 720 C 114 582 201 186 301 48 C 401 -90 709 -169 872 -116 C 1035 -63 1280 182 1280 353" fill="url(#lg-0.60486255398203)" opacity="0.49">
  <animate attributeName="d" dur="4.166666666666666s" repeatCount="indefinite" keyTimes="0;0.3333333333333333;0.6666666666666666;1" calcmod="spline" keySplines="0.3 0.1 0.7 0.9;0.3 0.1 0.7 0.9;0.3 0.1 0.7 0.9" begin="-1.3888888888888886s" values="M 1280 353 C 1280 524 1015 705 852 758 C 689 811 314 858 214 720 C 114 582 201 186 301 48 C 401 -90 709 -169 872 -116 C 1035 -63 1280 182 1280 353;M 1246 353 C 1246 490 974 690 844 733 C 714 776 444 723 363 612 C 282 501 275 199 356 88 C 437 -23 715 -75 845 -33 C 975 9 1246 216 1246 353;M 1231 353 C 1231 511 985 654 834 703 C 683 752 434 756 341 628 C 248 500 238 198 331 70 C 424 -58 688 -62 839 -13 C 990 36 1231 195 1231 353;M 1280 353 C 1280 524 1015 705 852 758 C 689 811 314 858 214 720 C 114 582 201 186 301 48 C 401 -90 709 -169 872 -116 C 1035 -63 1280 182 1280 353"></animate>
</path><path d="M 1240 353 C 1240 494 952 612 818 655 C 684 698 464 713 381 599 C 298 485 308 227 391 113 C 474 -1 705 -58 839 -15 C 973 28 1240 212 1240 353" fill="url(#lg-0.60486255398203)" opacity="0.49">
  <animate attributeName="d" dur="4.166666666666666s" repeatCount="indefinite" keyTimes="0;0.3333333333333333;0.6666666666666666;1" calcmod="spline" keySplines="0.3 0.1 0.7 0.9;0.3 0.1 0.7 0.9;0.3 0.1 0.7 0.9" begin="-1.3888888888888886s" values="M 1240 353 C 1240 494 952 612 818 655 C 684 698 464 713 381 599 C 298 485 308 227 391 113 C 474 -1 705 -58 839 -15 C 973 28 1240 212 1240 353;M 1205 353 C 1205 494 977 687 843 731 C 709 775 428 739 345 625 C 262 511 274 203 357 89 C 440 -25 683 10 817 53 C 951 96 1205 212 1205 353;M 1319 353 C 1319 509 976 635 827 683 C 678 731 342 820 250 694 C 158 568 266 216 358 90 C 450 -36 713 -129 861 -81 C 1009 -33 1319 197 1319 353;M 1240 353 C 1240 494 952 612 818 655 C 684 698 464 713 381 599 C 298 485 308 227 391 113 C 474 -1 705 -58 839 -15 C 973 28 1240 212 1240 353"></animate>
</path><path d="M 1290 353 C 1290 525 1005 671 841 724 C 677 777 421 782 320 643 C 219 504 141 144 242 5 C 343 -134 684 -93 848 -40 C 1012 13 1290 181 1290 353" fill="url(#lg-0.60486255398203)" opacity="0.49">
  <animate attributeName="d" dur="4.166666666666666s" repeatCount="indefinite" keyTimes="0;0.3333333333333333;0.6666666666666666;1" calcmod="spline" keySplines="0.3 0.1 0.7 0.9;0.3 0.1 0.7 0.9;0.3 0.1 0.7 0.9" begin="-1.3888888888888886s" values="M 1290 353 C 1290 525 1005 671 841 724 C 677 777 421 782 320 643 C 219 504 141 144 242 5 C 343 -134 684 -93 848 -40 C 1012 13 1290 181 1290 353;M 1177 353 C 1177 496 955 614 819 658 C 683 702 407 757 323 641 C 239 525 260 196 344 80 C 428 -36 691 -22 827 22 C 963 66 1177 210 1177 353;M 1295 353 C 1295 517 1012 719 856 770 C 700 821 368 811 272 678 C 176 545 238 205 334 72 C 430 -61 705 -133 861 -82 C 1017 -31 1295 189 1295 353;M 1290 353 C 1290 525 1005 671 841 724 C 677 777 421 782 320 643 C 219 504 141 144 242 5 C 343 -134 684 -93 848 -40 C 1012 13 1290 181 1290 353"></animate>
</path></g>
</svg>